PathFileType	4	(X/Y/Z)	C:\Users\Basilio\Documents\Thesis Gigler\squatting_fais\c3dfiles\076\SLS_back_pre4\markers_experimental.trc
DataRate	CameraRate	NumFrames	NumMarkers	Units	OrigDataRate	OrigDataStartFrame	OrigNumFrames
200.000000	200.000000	4	61	mm	200.000000	453	1814
Frame#	Time	FHD			LBHD			RBHD			C7			T10			CLAV			LSHO			LUUPA			LMUPA			LDUPA			LLEP			LMEP			LRAD			LUL			LRFIN			RSHO			RUPA1			RMUPA			RDUPA			RLEP			RMEP			RRAD			RUL			RUFIN			LASI			RASI			USACR			LSACR			RSACR			LTHI1			LTHI2			LTHI3			LTHI4			LLFC			LMFC			LTIB1			LTIB2			LTIB3			LTIB4			LLMAL			LMMAL			LHEE			LMT1			LMT2			LMT5			RTHI			RTHI2			RTHI3			RTHI4			RLFC			RMFC			RTIB1			RTIB2			RTIB3			RTIB4			RLMAL			RMMAL			RHEE			RMT1			RMT2			RMT5			
		X1	Y1	Z1	X2	Y2	Z2	X3	Y3	Z3	X4	Y4	Z4	X5	Y5	Z5	X6	Y6	Z6	X7	Y7	Z7	X8	Y8	Z8	X9	Y9	Z9	X10	Y10	Z10	X11	Y11	Z11	X12	Y12	Z12	X13	Y13	Z13	X14	Y14	Z14	X15	Y15	Z15	X16	Y16	Z16	X17	Y17	Z17	X18	Y18	Z18	X19	Y19	Z19	X20	Y20	Z20	X21	Y21	Z21	X22	Y22	Z22	X23	Y23	Z23	X24	Y24	Z24	X25	Y25	Z25	X26	Y26	Z26	X27	Y27	Z27	X28	Y28	Z28	X29	Y29	Z29	X30	Y30	Z30	X31	Y31	Z31	X32	Y32	Z32	X33	Y33	Z33	X34	Y34	Z34	X35	Y35	Z35	X36	Y36	Z36	X37	Y37	Z37	X38	Y38	Z38	X39	Y39	Z39	X40	Y40	Z40	X41	Y41	Z41	X42	Y42	Z42	X43	Y43	Z43	X44	Y44	Z44	X45	Y45	Z45	X46	Y46	Z46	X47	Y47	Z47	X48	Y48	Z48	X49	Y49	Z49	X50	Y50	Z50	X51	Y51	Z51	X52	Y52	Z52	X53	Y53	Z53	X54	Y54	Z54	X55	Y55	Z55	X56	Y56	Z56	X57	Y57	Z57	X58	Y58	Z58	X59	Y59	Z59	X60	Y60	Z60	X61	Y61	Z61	

454	2.265	-182.5248413085938	1640.90087890625	-880.2071533203127	-307.4457702636719	1569.060302734375	-993.7928466796877	-314.4641113281251	1575.418823242188	-842.932800292969	-360.9976501464844	1449.648803710938	-914.0618896484377	-381.9699096679688	1129.303100585938	-923.3652954101565	-225.1096649169922	1374.595458984375	-912.9820556640627	-300.9242248535157	1407.654907226563	-1083.839111328125	-321.9300842285157	1264.171020507813	-1219.88134765625	-302.2036437988282	1219.249877929688	-1206.527587890625	-329.9969482421876	1208.2041015625	-1260.048095703125	-342.1908264160157	1159.865478515625	-1289.1201171875	-419.6323547363282	1143.290649414063	-1247.576904296875	-262.0004272460938	1034.507690429688	-1085.260375976563	-309.6261901855469	1010.741943359375	-1103.22998046875	-267.2420043945313	977.715759277344	-1138.697631835938	-302.0295104980469	1395.703491210938	-749.4868774414064	-356.9505004882813	1262.914306640625	-614.0452880859376	-323.6861877441407	1225.380737304688	-609.7646484375001	-367.7196960449219	1205.772827148438	-572.8658447265626	-359.9245910644532	1136.314208984375	-549.2029418945314	-428.093475341797	1118.173950195313	-605.3793945312501	-310.0288085937501	1002.430969238281	-743.0307006835939	-258.8408203125001	1027.746948242188	-750.7572631835939	-264.1119079589844	972.3640136718752	-703.8887939453126	-222.5442962646485	945.8645629882815	-1033.29736328125	-213.0596313476563	942.9138183593752	-820.2595825195315	-383.3634338378907	1025.426147460938	-918.6293945312502	-391.9369506835939	996.647399902344	-946.3364257812502	-389.051483154297	995.2781372070315	-889.953796386719	-315.3222045898438	797.8828735351565	-1097.33544921875	-295.9145812988282	715.1773071289064	-1094.857177734375	-247.2393493652344	712.4952392578126	-1083.719848632813	-331.4765930175782	666.9559936523439	-1082.049926757813	-349.5352478027344	507.193084716797	-1056.897827148438	-313.7985229492188	496.7962341308595	-943.396179199219	-318.8018798828126	361.9811401367188	-994.957458496094	-344.4311523437501	311.3055419921876	-1063.053466796875	-314.6571350097657	313.1838684082032	-1027.865112304688	-326.8512268066407	235.0753784179688	-997.7932739257815	-385.465057373047	109.9812774658203	-1052.53076171875	-355.0111999511719	119.9275817871094	-973.8753662109377	-442.0336914062501	97.10849761962893	-1006.700805664063	-240.2265014648438	53.46367645263673	-993.3572998046877	-235.2199401855469	50.68027496337892	-1032.199584960938	-259.6870117187501	44.6557731628418	-1082.4208984375	-321.7872924804688	700.8015747070314	-759.2710571289064	-288.9363098144532	642.4108886718751	-756.6768188476564	-254.3113098144532	643.0505981445314	-762.3954467773439	-318.9875793457032	567.3301391601564	-773.640075683594	-326.6391906738282	506.9093322753907	-780.589782714844	-288.3108520507813	499.8733520507814	-893.8364868164065	-288.2770690917969	374.6036682128907	-796.6796875000002	-359.1944885253907	294.2668151855469	-779.146667480469	-312.3436889648438	291.3141174316407	-783.2979125976565	-295.1629943847657	245.6470794677735	-815.6755371093752	-356.6375122070313	108.8476333618164	-790.4873046875002	-328.1502685546876	119.0414581298828	-871.2305908203127	-410.2977294921876	92.1216506958008	-835.5478515625002	-209.5682830810547	51.51519775390626	-846.3609619140627	-206.2378845214844	52.19377899169923	-800.8757324218752	-238.0426940917969	36.50154876708985	-748.7282104492189	
455	2.27	-182.5261993408203	1640.908813476563	-880.2265625000002	-307.4401245117188	1569.182495117188	-993.8463134765627	-314.4328613281251	1575.4296875	-842.911071777344	-361.0078735351563	1449.668701171875	-914.084167480469	-381.9537963867188	1129.313842773438	-923.3980712890627	-225.1285858154297	1374.602905273438	-913.0386962890627	-300.9213562011719	1407.616088867188	-1083.80810546875	-321.9456481933594	1264.182006835938	-1219.90673828125	-302.3388977050782	1219.24267578125	-1206.549438476563	-329.9592590332032	1208.200439453125	-1260.041259765625	-342.1280517578126	1159.80859375	-1289.095581054688	-419.6542968750001	1143.26806640625	-1247.518188476563	-261.9524230957032	1034.486938476563	-1085.262939453125	-309.7005920410157	1010.735046386719	-1103.227661132813	-267.4131469726563	977.7906494140627	-1138.720458984375	-302.0548706054688	1395.70068359375	-749.5051269531251	-356.9823913574219	1262.919921875	-614.0422363281251	-323.7044372558594	1225.375854492188	-609.7904663085939	-367.6977539062501	1205.773803710938	-572.9295043945314	-359.9180908203126	1136.337646484375	-549.0888671875001	-428.0540161132814	1118.163452148438	-605.4606933593751	-310.0349121093751	1002.408142089844	-743.0313720703126	-258.8210754394532	1027.758666992188	-750.7663574218751	-264.1099853515626	972.372253417969	-703.8969116210939	-222.4961090087891	945.974548339844	-1033.383178710938	-213.0605468750001	942.9208984375002	-820.2635498046877	-383.3349914550782	1025.36865234375	-918.6101684570315	-391.9503784179689	996.6157226562502	-946.3372802734377	-389.0145263671876	995.2539672851565	-889.9676513671877	-315.3216552734376	797.8109130859377	-1097.241088867188	-296.0040283203126	715.1999511718751	-1094.846923828125	-247.2689819335938	712.5056152343751	-1083.7431640625	-331.4608459472657	667.0102539062501	-1082.06787109375	-349.5648193359376	507.1647338867189	-1056.915649414063	-313.7087707519532	496.9323730468751	-943.5195922851565	-319.1237792968751	362.0923461914063	-995.1239013671877	-344.4352111816407	311.3268127441407	-1063.055541992188	-314.6538391113282	313.2416381835938	-1027.907470703125	-326.5021057128907	234.8827819824219	-997.5660400390627	-385.5496826171876	109.9676742553711	-1052.538330078125	-355.0146789550782	119.9457931518555	-973.8570556640627	-442.0726928710939	97.13584899902347	-1006.732116699219	-240.2380371093751	53.42206192016603	-993.3940429687502	-235.1848907470704	50.68804168701173	-1032.182250976563	-259.0684204101563	44.31640243530274	-1082.239501953125	-321.7724304199219	700.8366699218751	-759.3013305664064	-288.9435119628907	642.4143066406251	-756.7252807617189	-254.3082427978516	643.0397338867189	-762.4270019531251	-318.9479370117188	567.3488159179689	-773.6595458984377	-326.6434326171876	506.9060668945314	-780.5931396484377	-288.2690429687501	499.8953857421876	-893.8564453125002	-288.2406005859376	374.6132202148438	-796.6597290039065	-359.2002868652344	294.2814941406251	-779.1123046875002	-312.3229980468751	291.3222656250001	-783.2896728515627	-295.1613464355469	245.6423339843751	-815.671569824219	-356.6378784179688	108.8459014892578	-790.4841308593752	-328.1496582031251	119.1219177246094	-871.2352294921877	-410.2539672851564	92.1073455810547	-835.6181640625002	-209.5194854736329	51.42642974853517	-846.3500976562502	-206.3411865234376	52.24241256713869	-800.9051513671877	-238.2023315429688	36.50008010864259	-748.8076171875001	
456	2.275	-182.5107879638672	1640.898559570313	-880.1983032226565	-307.4874877929688	1569.146362304688	-993.8667602539065	-314.4847106933594	1575.385986328125	-842.9320068359377	-361.0471191406251	1449.669555664063	-914.084899902344	-381.9554138183594	1129.315185546875	-923.4306640625002	-225.1003570556641	1374.611206054688	-913.021423339844	-300.9824523925782	1407.639282226563	-1083.8544921875	-321.9682006835938	1264.18310546875	-1219.851806640625	-302.2496643066407	1219.216064453125	-1206.528442382813	-329.9832458496094	1208.152587890625	-1260.043579101563	-342.1532592773438	1159.78515625	-1289.085815429688	-419.6509399414064	1143.169921875	-1247.524658203125	-261.9421386718751	1034.462524414063	-1085.279174804688	-309.6364440917969	1010.725280761719	-1103.244262695313	-267.3780212402344	977.755065917969	-1138.756469726563	-302.0501708984376	1395.655395507813	-749.5137329101564	-356.9835815429688	1262.91162109375	-614.0758056640626	-323.7006225585938	1225.328979492188	-609.7932739257814	-367.6950683593751	1205.759765625	-572.9197998046876	-359.9275207519532	1136.31689453125	-549.1318359375001	-428.0723571777345	1118.094970703125	-605.3388671875001	-310.0271301269532	1002.424560546875	-743.0316772460939	-258.7879028320313	1027.764038085938	-750.7583618164064	-264.1008911132813	972.3867187500002	-703.8742065429689	-222.726791381836	945.8125000000002	-1033.274047851563	-213.0562438964844	942.908386230469	-820.286560058594	-383.3062133789063	1025.3623046875	-918.6499023437502	-391.9411926269532	996.6225585937502	-946.3306884765627	-389.0222473144532	995.267028808594	-889.9934692382815	-315.3545837402344	797.854919433594	-1097.326293945313	-295.9869995117188	715.1563110351564	-1094.819946289063	-247.2486572265626	712.5114746093751	-1083.729370117188	-331.5714416503907	666.9898071289064	-1082.158203125	-349.5031433105469	507.152801513672	-1056.91748046875	-313.6860656738282	496.9476623535157	-943.5299072265627	-319.1250305175782	362.0978393554688	-995.191589355469	-344.4112854003907	311.3085632324219	-1063.0673828125	-314.6630249023438	313.2062377929688	-1027.871459960938	-326.8313293457032	235.0703735351563	-997.7527465820315	-385.561737060547	110.0052566528321	-1052.542724609375	-355.0373840332032	119.917839050293	-973.8853759765627	-442.0507812500001	97.11446380615237	-1006.7578125	-240.2754669189454	53.38615798950197	-993.361755371094	-235.2117614746094	50.7056121826172	-1032.192138671875	-259.7067260742188	44.63628768920899	-1082.448608398438	-321.7868041992188	700.7894287109376	-759.3281250000001	-288.9414978027344	642.4219970703126	-756.7197265625001	-254.2728729248047	643.0802612304689	-762.3713989257814	-318.9400024414063	567.3250122070314	-773.6501464843752	-326.6172485351563	506.8673706054689	-780.601257324219	-288.2888793945313	499.8966064453126	-893.8574218750002	-288.2507324218751	374.6106567382813	-796.691101074219	-359.1748352050782	294.2752380371094	-779.122497558594	-312.3379821777344	291.2985534667969	-783.3110351562502	-295.1466674804688	245.5794219970704	-815.684020996094	-356.6135864257813	108.8553543090821	-790.5078125000002	-327.2441406250001	119.0402526855469	-871.1453247070315	-410.2749023437501	92.09073638916017	-835.6164550781252	-209.587875366211	51.4872283935547	-846.3653564453127	-206.3369293212891	52.23631286621095	-800.8836669921877	-238.1938171386719	36.50221633911134	-748.7703857421876	
457	2.28	-182.57080078125	1640.9072265625	-880.2504882812502	-307.5167541503907	1569.119018554688	-993.8903808593752	-314.5272216796876	1575.430786132813	-842.973815917969	-361.0268554687501	1449.674438476563	-914.110778808594	-381.9403381347657	1129.287109375	-923.404235839844	-225.1856079101563	1374.640869140625	-913.0854492187502	-301.0253295898438	1407.609619140625	-1083.853881835938	-321.9429626464844	1264.171508789063	-1219.912719726563	-302.3057556152344	1219.259033203125	-1206.538940429688	-329.9866027832032	1208.143676757813	-1260.049072265625	-342.1628723144532	1159.787353515625	-1289.116088867188	-419.6336975097657	1143.204833984375	-1247.49560546875	-262.0744934082032	1034.463012695313	-1085.295043945313	-309.6434020996094	1010.725952148438	-1103.267944335938	-267.2256774902344	977.7414550781252	-1138.71630859375	-302.0679321289063	1395.664306640625	-749.5209960937501	-356.9915771484376	1262.894897460938	-614.0604858398439	-323.6960754394532	1225.338500976563	-609.8016967773439	-367.6841125488282	1205.751586914063	-572.9241943359376	-359.9142456054688	1136.310668945313	-549.1547241210939	-428.0062561035157	1118.113037109375	-605.5455932617189	-309.9858703613282	1002.43017578125	-743.0559692382814	-258.7956542968751	1027.785766601563	-750.8081665039064	-264.0433959960938	972.4188232421877	-703.9230346679689	-222.509262084961	945.925231933594	-1033.410766601563	-213.0104522705079	942.929870605469	-820.3125000000002	-383.3468933105469	1025.340942382813	-918.6853027343752	-391.946258544922	996.6275634765627	-946.369079589844	-389.019744873047	995.2362060546877	-889.968933105469	-315.3336791992188	797.8684082031252	-1097.296630859375	-295.9974975585938	715.1752929687501	-1094.891357421875	-247.2357940673829	712.5200195312501	-1083.71044921875	-331.5063171386719	667.0081176757814	-1082.1572265625	-349.5735168457032	507.1731262207032	-1056.938232421875	-313.7805786132813	496.822967529297	-943.369812011719	-319.1230163574219	362.1091918945313	-995.131774902344	-344.3722229003907	311.3189086914063	-1063.070678710938	-314.6205139160157	313.2694091796876	-1027.937133789063	-326.8438720703126	235.0797119140626	-997.7877197265627	-385.5965881347657	110.0502471923828	-1052.536865234375	-355.0441589355469	119.9028549194336	-973.8743896484377	-442.048553466797	97.12478637695315	-1006.701232910156	-240.2457885742188	53.43085861206056	-993.3931884765627	-235.2283172607422	50.67958068847658	-1032.223754882813	-259.7193298339844	44.62932968139649	-1082.45263671875	-321.7910461425782	700.7996826171876	-759.2650146484376	-288.9327697753907	642.4172973632814	-756.7191772460939	-254.313949584961	643.0485839843751	-762.4345703125001	-318.9557189941407	567.3421630859376	-773.665954589844	-326.6272888183594	506.8681030273439	-780.588562011719	-287.8549499511719	499.6578369140626	-893.7525634765627	-288.1849060058594	374.6269226074219	-796.6506958007815	-359.2185058593751	294.2804565429688	-779.1945800781252	-312.3147888183594	291.2969665527344	-783.3438110351565	-295.1269836425782	245.5765228271485	-815.6699218750002	-356.6422424316407	108.8474426269532	-790.4944458007815	-328.0923461914063	119.1416854858399	-871.2202148437502	-410.3058471679689	92.11345672607423	-835.593688964844	-209.5565185546876	51.47657012939455	-846.3504028320315	-206.2446594238282	52.19112396240236	-800.8714599609377	-238.0598907470704	36.48784255981446	-748.7300415039064	
